<svg width="12" height="11" viewBox="0 0 12 11" fill="none" xmlns="http://www.w3.org/2000/svg">
<path fill-rule="evenodd" clip-rule="evenodd" d="M8.39359 0.786457C8.0186 0.789551 7.64671 1.16763 6.90293 1.9238C5.41536 3.43612 4.41952 3.94436 2.41958 3.96086C0.419653 3.97737 3.94429 6.94838 3.94429 6.94838L1.00359 10.9375L0.968685 10.9724L0.988778 10.9576L0.977428 10.973L1.00418 10.9463L4.99331 8.00555C4.99331 8.00555 7.96432 11.5302 7.98082 9.53026C7.99733 7.53033 8.50556 6.53449 10.0179 5.04692C10.7741 4.30313 11.1521 3.93124 11.1552 3.55625C11.1583 3.18127 10.7864 2.80318 10.0426 2.04702L9.97303 1.9774L9.97711 1.97332L9.90282 1.89904C9.14666 1.15525 8.76858 0.783362 8.39359 0.786457Z" fill="#FEC553"/>
</svg>
